<svg xmlns="http://www.w3.org/2000/svg" xmlns:xlink="http://www.w3.org/1999/xlink" width="36.275" height="36.275" viewBox="0 0 36.275 36.275">
  <defs>
    <clipPath id="clip-path">
      <rect id="Rectangle_52554" data-name="Rectangle 52554" width="22.21" height="22.211" fill="none"/>
    </clipPath>
  </defs>
  <g id="Group_166662" data-name="Group 166662" transform="translate(-11 -6)">
    <g id="Group_166661" data-name="Group 166661" transform="translate(11 6)">
      <path id="Subtraction_1" data-name="Subtraction 1" d="M18.138,36.275A18.137,18.137,0,0,1,5.312,5.312,18.14,18.14,0,0,1,34.065,26.821a4.159,4.159,0,0,0-3.3-1.705H30.69a4.186,4.186,0,0,0-2.067,7.823A18.01,18.01,0,0,1,18.138,36.275Z" transform="translate(0)" fill="#fff"/>
      <g id="Group_166652" data-name="Group 166652" transform="matrix(1, 0.017, -0.017, 1, 27.953, 26.461)">
        <circle id="Ellipse_2652" data-name="Ellipse 2652" cx="2.79" cy="2.79" r="2.79" transform="translate(0 0)" fill="#45d52f"/>
      </g>
      <g id="Group_166667" data-name="Group 166667" transform="translate(8.009 7.019)">
        <g id="Group_166667-2" data-name="Group 166667" clip-path="url(#clip-path)">
          <path id="Path_153244" data-name="Path 153244" d="M8.651,26.173h-5.8a1.5,1.5,0,0,1-1.58-1.307q-.623-3.3-1.242-6.6A1.474,1.474,0,0,1,1.4,16.461a.214.214,0,0,0,.227-.189,7.509,7.509,0,0,1,.358-1.136,2.427,2.427,0,0,1,1.692-1.46c.158-.039.155-.123.155-.241,0-1.384-.025-2.768.008-4.151A5.157,5.157,0,0,1,5.6,5.415a4.549,4.549,0,0,1,6.823.773,5.581,5.581,0,0,1,1.061,3.357c0,1.286,0,2.572,0,3.858,0,.171.04.242.216.289a2.5,2.5,0,0,1,1.781,1.834c.078.251.148.5.213.758a.2.2,0,0,0,.215.176,1.457,1.457,0,0,1,1.384,1.757c-.328,1.817-.68,3.631-1.022,5.446-.081.428-.159.856-.244,1.283a1.476,1.476,0,0,1-1.484,1.226q-2.944,0-5.889,0" transform="translate(0 -3.963)" fill="#293c66"/>
          <path id="Path_153245" data-name="Path 153245" d="M238.283,0h3.2a.732.732,0,0,1,.823.816q0,1.873,0,3.745a.735.735,0,0,1-.809.811q-1.467,0-2.933,0a.522.522,0,0,0-.331.106c-.722.528-1.449,1.048-2.171,1.577a.468.468,0,0,1-.8-.414c0-.368,0-.737,0-1.105,0-.126-.033-.162-.162-.165-.636-.013-.882-.268-.882-.9q0-1.816,0-3.633a.745.745,0,0,1,.849-.84h3.2" transform="translate(-220.102 0)" fill="#293c66"/>
          <path id="Path_153246" data-name="Path 153246" d="M15.88,228.053c-.135-.684-.273-1.367-.4-2.052-.236-1.238-.467-2.477-.7-3.716a1.225,1.225,0,0,1-.032-.38.537.537,0,0,1,.478-.489,18.536,18.536,0,0,1,2.185-.04q4.465.006,8.929.026c.06,0,.119.007.179.011.72-.037,1.441,0,2.162-.017.11,0,.15.045.142.148a1.007,1.007,0,0,1-.012.112c-.162.81-.273,1.631-.495,2.429a5.639,5.639,0,0,1-4.65,3.975,8.3,8.3,0,0,1-.966.062c-2.149-.005-4.3,0-6.448,0a.52.52,0,0,1-.368-.065" transform="translate(-13.848 -208.012)" fill="#d1e1f1"/>
          <path id="Path_153247" data-name="Path 153247" d="M33.683,228.329c2.33,0,4.66,0,6.99,0a5.409,5.409,0,0,0,2.574-.609,5.522,5.522,0,0,0,2.932-3.881c.136-.642.241-1.29.37-1.934.034-.169-.005-.212-.18-.21-.684.008-1.368,0-2.052,0a5.635,5.635,0,0,1,.942-.023c.714-.009,1.428-.01,2.142-.007a.622.622,0,0,1,.662.8q-.623,3.284-1.245,6.569a.613.613,0,0,1-.7.583q-5.818,0-11.637,0a.6.6,0,0,1-.681-.571c-.048-.235-.082-.472-.123-.708" transform="translate(-31.651 -208.288)" fill="#c7d6e6"/>
          <path id="Path_153248" data-name="Path 153248" d="M78.295,24.948c0-.692-.044-1.387.009-2.075a4.2,4.2,0,0,1,2.058-3.463,3.678,3.678,0,0,1,5.062,1.323,4.616,4.616,0,0,1,.723,2.476c.006,1.286,0,2.572.005,3.858,0,.169-.027.211-.211.184-.483-.072-.969-.119-1.456-.159-.159-.013-.213-.053-.223-.223a1.963,1.963,0,0,1,.411-1.378,5.013,5.013,0,0,0,.809-4.076.341.341,0,0,0-.432-.318,2.231,2.231,0,0,1-1.89-.713.367.367,0,0,0-.586-.043,4.815,4.815,0,0,1-2.555.972c-.254.026-.51.033-.765.034a.33.33,0,0,0-.365.32,5.141,5.141,0,0,0,1.18,4.245.278.278,0,0,1,.081.2c0,.271-.006.542,0,.812,0,.118-.043.156-.156.162a14.162,14.162,0,0,0-1.544.176c-.159.027-.171-.047-.17-.172,0-.714,0-1.429,0-2.143h.01" transform="translate(-73.556 -17.747)" fill="#c6c6c6"/>
          <path id="Path_153249" data-name="Path 153249" d="M42.009,171.475a3.9,3.9,0,0,1,.343-1.088,1.769,1.769,0,0,1,1.473-.9c.728-.1,1.458-.186,2.189-.265a.251.251,0,0,1,.292.165,2.039,2.039,0,0,0,3.647.017.286.286,0,0,1,.35-.173c.379.05.761.081,1.141.119a.3.3,0,0,1,.173.039,1.555,1.555,0,0,1,.863.929,8.03,8.03,0,0,1,.286.9c.066.218.018.272-.206.272h-10.4a.238.238,0,0,1-.153-.022" transform="translate(-39.475 -159.016)" fill="#59dd9a"/>
          <path id="Path_153250" data-name="Path 153250" d="M99.466,58.463a4,4,0,0,1-.812-1.922A5.809,5.809,0,0,1,98.6,55.4c0-.124.045-.17.17-.174a5.664,5.664,0,0,0,3.051-.945c.064-.043.11-.058.176,0a3.144,3.144,0,0,0,1.483.71.324.324,0,0,1,.055.278,4.24,4.24,0,0,1-1.522,2.912,2.487,2.487,0,0,1-2.144.472.984.984,0,0,1-.406-.186" transform="translate(-92.651 -50.968)" fill="#febb74"/>
          <path id="Path_153251" data-name="Path 153251" d="M112.991,70.116a2.593,2.593,0,0,0,1.627.11,2.734,2.734,0,0,0,1.5-1.049,4.364,4.364,0,0,0,.895-2.536c.527.007.523.007.542.54a4.361,4.361,0,0,1-.865,2.938,2.346,2.346,0,0,1-1.605.989,2.2,2.2,0,0,1-2.088-.991" transform="translate(-106.176 -62.621)" fill="#f2b26f"/>
          <path id="Path_153252" data-name="Path 153252" d="M42.009,174.136H52.471c.311,0,.318,0,.211-.3a4.446,4.446,0,0,0-.5-1.246,5.076,5.076,0,0,0-.568-.536,6.509,6.509,0,0,1,1.331.206,1.559,1.559,0,0,1,1.1,1.093c.073.212.114.436.19.647.057.159-.005.176-.14.175-.5,0-1.007,0-1.511,0q-5.163,0-10.326,0c-.085,0-.18.037-.257-.036" transform="translate(-39.475 -161.677)" fill="#55d393"/>
          <path id="Path_153253" data-name="Path 153253" d="M120.78,147.218a1.277,1.277,0,0,1-.325-.862c0-.217,0-.433,0-.689a2.784,2.784,0,0,0,2.16.286c.191-.035.108.1.088.162a1.672,1.672,0,0,1-.468.728,2.026,2.026,0,0,1-1.1.473.45.45,0,0,1-.357-.1" transform="translate(-113.187 -136.881)" fill="#e4a25a"/>
          <path id="Path_153254" data-name="Path 153254" d="M125.879,148.209a1.7,1.7,0,0,0,1.872-1.113c.016-.046.09-.132-.038-.152.11-.046.221-.089.329-.138.3-.135.292-.136.3.206a1.6,1.6,0,0,1-.5,1.381,1.377,1.377,0,0,1-1.963-.184" transform="translate(-118.287 -137.872)" fill="#d99a56"/>
          <path id="Path_153255" data-name="Path 153255" d="M249.748,19.3c0-.165,0-.331-.009-.5a.465.465,0,0,0-.48-.488h-.023c-.17-.013-.392.074-.5-.038s-.036-.344-.036-.522c0-.94,0-1.88,0-2.819,0-.12-.007-.212.169-.212,1.872.006,3.744,0,5.617.006a.266.266,0,0,1,.044.007.922.922,0,0,1,.062.565,1.829,1.829,0,0,1-.189.905c-.178.091-.2-.124-.309-.161a.6.6,0,0,0-.838.825c.089.18.313.177.43.319-.007.113-.095.164-.172.222a2.535,2.535,0,0,1-1.446.5,1.36,1.36,0,0,0-.826.3c-.409.328-.817.658-1.235.975-.075.057-.144.137-.257.113" transform="translate(-233.677 -13.836)" fill="#59d4fe"/>
          <path id="Path_153256" data-name="Path 153256" d="M266.456,19.346c.5-.383,1-.761,1.484-1.153a1.255,1.255,0,0,1,.78-.291,2.566,2.566,0,0,0,1.521-.522,1.2,1.2,0,0,0,.138-.146c.043-.063.116-.062.179-.081a.589.589,0,0,0,.478-.68c0-.065-.034-.133.02-.193a3.618,3.618,0,0,0,.181-1.494c.464-.029.464-.029.464.425,0,.97-.006,1.94.005,2.91,0,.2-.059.249-.253.247-.925-.01-1.85,0-2.775-.007a.83.83,0,0,0-.523.168c-.5.367-1,.726-1.5,1.087a.412.412,0,0,1-.2.112Z" transform="translate(-250.385 -13.883)" fill="#55caf2"/>
          <path id="Path_153257" data-name="Path 153257" d="M109.164,251.158a2.2,2.2,0,1,1-2.2,2.213,2.21,2.21,0,0,1,2.2-2.213" transform="translate(-100.511 -236.009)" fill="#293c66"/>
          <path id="Path_153258" data-name="Path 153258" d="M259.076,34.677a.627.627,0,0,1,.053-.848.635.635,0,0,1,.847-.06.618.618,0,0,1-.111.81.6.6,0,0,1-.789.1" transform="translate(-243.318 -31.607)" fill="#fefefe"/>
          <path id="Path_153259" data-name="Path 153259" d="M321.857,34.69a.627.627,0,0,1,.053-.849.634.634,0,0,1,.849-.058.626.626,0,0,1-.113.81.608.608,0,0,1-.79.1" transform="translate(-302.313 -31.619)" fill="#fefefe"/>
          <path id="Path_153260" data-name="Path 153260" d="M290.481,34.685a.662.662,0,1,1,.772-.082.6.6,0,0,1-.772.082" transform="translate(-272.83 -31.614)" fill="#fefefe"/>
          <path id="Path_153261" data-name="Path 153261" d="M261.243,36.763a.684.684,0,0,0,.9-.908.594.594,0,0,1,.254.688.611.611,0,0,1-.511.482.586.586,0,0,1-.644-.262" transform="translate(-245.486 -33.692)" fill="#eceded"/>
          <path id="Path_153262" data-name="Path 153262" d="M292.632,36.781a.687.687,0,0,0,.9-.907.6.6,0,0,1,.253.688.612.612,0,0,1-.512.478.587.587,0,0,1-.643-.259" transform="translate(-274.982 -33.71)" fill="#ededed"/>
          <path id="Path_153263" data-name="Path 153263" d="M324.032,36.8a.687.687,0,0,0,.9-.906c.106.047.149.154.223.231a.677.677,0,0,1-.676.954.64.64,0,0,1-.45-.278" transform="translate(-304.488 -33.733)" fill="#eceded"/>
          <path id="Path_153264" data-name="Path 153264" d="M122.044,268.016a1.3,1.3,0,0,1,1.821-1.865.716.716,0,0,1,.024.506,1.858,1.858,0,0,1-1.584,1.4.487.487,0,0,1-.262-.046" transform="translate(-114.338 -249.775)" fill="#e1e1e1"/>
          <path id="Path_153265" data-name="Path 153265" d="M127.762,273.375a1.766,1.766,0,0,0,1.821-1.865,1.305,1.305,0,1,1-1.821,1.865" transform="translate(-120.056 -255.134)" fill="#d2d2d2"/>
        </g>
      </g>
    </g>
  </g>
</svg>
